<svg width="1440" height="840" viewBox="0 0 1440 840" fill="none" xmlns="http://www.w3.org/2000/svg">
<g clip-path="url(#clip0_50_401)">
<g filter="url(#filter0_f_50_401)">
<rect x="-445" y="450" width="1076.92" height="1076.92" transform="rotate(-45 -445 450)" fill="#75FF00"/>
</g>
<g filter="url(#filter1_f_50_401)">
<rect x="2009" y="450" width="1200" height="1200" transform="rotate(135 2009 450)" fill="#EA5CF6"/>
</g>
<g style="mix-blend-mode:soft-light">
<path fill-rule="evenodd" clip-rule="evenodd" d="M720.383 -100.878C913.784 -175.59 1093.69 -175.591 1225.26 -156.912C1291.04 -147.573 1344.73 -133.564 1381.98 -121.891C1400.6 -116.054 1415.11 -110.802 1424.96 -107.01C1429.89 -105.113 1433.65 -103.582 1436.18 -102.526C1437.44 -101.997 1438.4 -101.587 1439.04 -101.31C1439.36 -101.171 1439.6 -101.066 1439.76 -100.995L1439.94 -100.915L1439.98 -100.895L1439.99 -100.89C1440 -100.889 1440 -100.888 1440.2 -101.344C1440.41 -101.801 1440.41 -101.801 1440.4 -101.802L1440.39 -101.808L1440.35 -101.828L1440.16 -101.91C1440.08 -101.947 1439.97 -101.993 1439.85 -102.048C1439.73 -102.1 1439.59 -102.16 1439.43 -102.227C1438.79 -102.507 1437.83 -102.918 1436.56 -103.448C1434.02 -104.508 1430.25 -106.043 1425.32 -107.943C1415.45 -111.742 1400.92 -117.002 1382.27 -122.845C1344.99 -134.532 1291.24 -148.554 1225.4 -157.902C1093.71 -176.598 913.622 -176.599 720.023 -101.811C526.622 -27.0988 346.712 -27.098 215.148 -45.7771C149.367 -55.1166 95.6749 -69.1257 58.4308 -80.7987C39.8089 -86.6352 25.2994 -91.8876 15.4472 -95.68C10.5211 -97.5762 6.75937 -99.1074 4.23011 -100.164C2.96548 -100.693 2.00897 -101.102 1.3691 -101.38C1.04916 -101.518 0.808385 -101.624 0.647832 -101.695C0.567556 -101.73 0.507335 -101.757 0.467304 -101.775L0.422416 -101.795L0.411359 -101.8C0.409 -101.801 0.40791 -101.801 0.203125 -101.345C-0.00166033 -100.889 -0.000209883 -100.889 0.00250882 -100.887L0.0142882 -100.882L0.060628 -100.861C0.101629 -100.843 0.162825 -100.816 0.244082 -100.78C0.406596 -100.708 0.649355 -100.602 0.971296 -100.462C1.61518 -100.183 2.57578 -99.7716 3.8446 -99.2415C6.38223 -98.1812 10.1527 -96.6465 15.088 -94.7468C24.9584 -90.9473 39.488 -85.6879 58.1317 -79.8445C95.4189 -68.1579 149.164 -54.1354 215.008 -44.7871C346.694 -26.0906 526.784 -26.0894 720.383 -100.878ZM1225.26 -132.912C1093.69 -151.591 913.784 -151.59 720.383 -76.878C526.784 -2.0894 346.694 -2.09056 215.008 -20.7871C149.164 -30.1354 95.4189 -44.1579 58.1317 -55.8445C39.488 -61.6879 24.9584 -66.9473 15.088 -70.7468C10.1527 -72.6465 6.38223 -74.1812 3.8446 -75.2415C2.57578 -75.7716 1.61518 -76.1831 0.971296 -76.4623C0.649355 -76.6018 0.406596 -76.7084 0.244082 -76.7801C0.162825 -76.8159 0.101629 -76.8431 0.060628 -76.8614L0.0142882 -76.882L0.00250882 -76.8873C-0.000209883 -76.8885 -0.00166033 -76.8892 0.203125 -77.3453C0.40791 -77.8014 0.409 -77.8009 0.411359 -77.7999L0.422416 -77.7949L0.467304 -77.7749C0.507335 -77.7571 0.567556 -77.7304 0.647832 -77.6949C0.808385 -77.6241 1.04916 -77.5184 1.3691 -77.3797C2.00897 -77.1023 2.96548 -76.6925 4.23011 -76.1642C6.75937 -75.1074 10.5211 -73.5762 15.4472 -71.68C25.2994 -67.8876 39.8089 -62.6352 58.4308 -56.7987C95.6749 -45.1257 149.367 -31.1166 215.148 -21.7771C346.712 -3.09804 526.622 -3.09875 720.023 -77.8108C913.622 -152.599 1093.71 -152.598 1225.4 -133.902C1291.24 -124.554 1344.99 -110.532 1382.27 -98.845C1400.92 -93.0018 1415.45 -87.7423 1425.32 -83.9429C1430.25 -82.0432 1434.02 -80.5084 1436.56 -79.4482C1437.83 -78.9181 1438.79 -78.5066 1439.43 -78.2274C1439.76 -78.0879 1440 -77.9813 1440.16 -77.9096L1440.35 -77.8284L1440.39 -77.8077L1440.4 -77.8024C1440.41 -77.8012 1440.41 -77.8005 1440.2 -77.3444C1440 -76.8883 1440 -76.8888 1439.99 -76.8898L1439.98 -76.8948L1439.94 -76.9148L1439.76 -76.9948C1439.6 -77.0656 1439.36 -77.1713 1439.04 -77.31C1438.4 -77.5874 1437.44 -77.9972 1436.18 -78.5255C1433.65 -79.5822 1429.89 -81.1134 1424.96 -83.0096C1415.11 -86.802 1400.6 -92.0544 1381.98 -97.8908C1344.73 -109.564 1291.04 -123.573 1225.26 -132.912ZM720.383 -52.878C913.784 -127.59 1093.69 -127.591 1225.26 -108.912C1291.04 -99.5727 1344.73 -85.5638 1381.98 -73.8908C1400.6 -68.0544 1415.11 -62.802 1424.96 -59.0096C1429.89 -57.1134 1433.65 -55.5822 1436.18 -54.5255C1437.44 -53.9972 1438.4 -53.5874 1439.04 -53.31C1439.36 -53.1713 1439.6 -53.0656 1439.76 -52.9948L1439.94 -52.9148L1439.98 -52.8948L1439.99 -52.8898C1440 -52.8891 1440 -52.8887 1440.05 -53.0016C1440.08 -53.0684 1440.13 -53.1748 1440.2 -53.3444C1440.41 -53.8005 1440.41 -53.8012 1440.4 -53.8024L1440.39 -53.8077L1440.35 -53.8284L1440.16 -53.9096C1440 -53.9813 1439.76 -54.0879 1439.43 -54.2274C1438.79 -54.5066 1437.83 -54.9181 1436.56 -55.4482C1434.02 -56.5084 1430.25 -58.0432 1425.32 -59.9429C1415.45 -63.7423 1400.92 -69.0018 1382.27 -74.845C1344.99 -86.5315 1291.24 -100.554 1225.4 -109.902C1093.71 -128.598 913.622 -128.599 720.023 -53.8108C526.622 20.9012 346.712 20.902 215.148 2.22285C149.367 -7.11664 95.6749 -21.1257 58.4308 -32.7987C39.8089 -38.6352 25.2994 -43.8876 15.4472 -47.68C10.5211 -49.5762 6.75937 -51.1074 4.23011 -52.1642C2.96548 -52.6925 2.00897 -53.1023 1.3691 -53.3797C1.04916 -53.5184 0.808385 -53.6241 0.647832 -53.6949C0.567556 -53.7304 0.507335 -53.7571 0.467304 -53.7749L0.422416 -53.7949L0.411359 -53.7999C0.409 -53.8009 0.40791 -53.8014 0.203125 -53.3453C-0.00166033 -52.8892 -0.000209883 -52.8885 0.00250882 -52.8873L0.0142882 -52.882L0.060628 -52.8614C0.101629 -52.8431 0.162825 -52.8159 0.244082 -52.7801C0.406596 -52.7084 0.649355 -52.6018 0.971296 -52.4623C1.61518 -52.1831 2.57578 -51.7716 3.8446 -51.2415C6.38223 -50.1812 10.1527 -48.6465 15.088 -46.7468C24.9584 -42.9473 39.488 -37.6879 58.1317 -31.8445C95.4189 -20.1579 149.164 -6.13538 215.008 3.21292C346.694 21.9094 526.784 21.9106 720.383 -52.878ZM1225.26 -84.9121C1093.69 -103.591 913.784 -103.59 720.383 -28.878C526.784 45.9106 346.694 45.9094 215.008 27.2129C149.164 17.8646 95.4189 3.84206 58.1317 -7.84451C39.488 -13.6879 24.9584 -18.9473 15.088 -22.7468C10.1527 -24.6465 6.38223 -26.1812 3.8446 -27.2415C2.57578 -27.7716 1.61518 -28.1831 0.971296 -28.4622C0.649355 -28.6018 0.406596 -28.7084 0.244082 -28.7801C0.162825 -28.8159 0.101629 -28.8431 0.060628 -28.8614L0.0142882 -28.882L0.00250882 -28.8873C-0.000209883 -28.8885 -0.00166033 -28.8892 0.203125 -29.3453C0.40791 -29.8014 0.409 -29.8009 0.411359 -29.7999L0.422416 -29.795L0.467304 -29.7749C0.507335 -29.7571 0.567556 -29.7304 0.647832 -29.6949C0.808385 -29.6241 1.04916 -29.5184 1.3691 -29.3797C2.00897 -29.1023 2.96548 -28.6925 4.23011 -28.1642C6.75937 -27.1075 10.5211 -25.5762 15.4472 -23.68C25.2994 -19.8876 39.8089 -14.6352 58.4308 -8.79874C95.6749 2.87433 149.367 16.8834 215.148 26.2229C346.712 44.902 526.622 44.9012 720.023 -29.8108C913.622 -104.599 1093.71 -104.598 1225.4 -85.9022C1291.24 -76.554 1344.99 -62.5315 1382.27 -50.845C1400.92 -45.0018 1415.45 -39.7423 1425.32 -35.9429C1430.25 -34.0432 1434.02 -32.5085 1436.56 -31.4482C1437.83 -30.9181 1438.79 -30.5066 1439.43 -30.2274C1439.76 -30.0879 1440 -29.9814 1440.16 -29.9096L1440.35 -29.8284L1440.39 -29.8077L1440.4 -29.8024C1440.41 -29.8012 1440.41 -29.8005 1440.2 -29.3444C1440 -28.8883 1440 -28.8888 1439.99 -28.8898L1439.98 -28.8948L1439.94 -28.9148L1439.76 -28.9948C1439.6 -29.0656 1439.36 -29.1713 1439.04 -29.31C1438.4 -29.5874 1437.44 -29.9972 1436.18 -30.5255C1433.65 -31.5822 1429.89 -33.1134 1424.96 -35.0096C1415.11 -38.802 1400.6 -44.0544 1381.98 -49.8908C1344.73 -61.5638 1291.04 -75.5727 1225.26 -84.9121ZM720.383 -4.87799C913.784 -79.5901 1093.69 -79.591 1225.26 -60.9121C1291.04 -51.5727 1344.73 -37.5638 1381.98 -25.8908C1400.6 -20.0544 1415.11 -14.802 1424.96 -11.0096C1429.89 -9.11345 1433.65 -7.58224 1436.18 -6.52551C1437.44 -5.99716 1438.4 -5.5874 1439.04 -5.30997C1439.2 -5.23819 1439.35 -5.17526 1439.47 -5.12143C1439.58 -5.07123 1439.68 -5.02895 1439.76 -4.99475L1439.94 -4.91478L1439.98 -4.89476L1439.99 -4.8898C1440 -4.88876 1440 -4.88828 1440.2 -5.34441C1440.33 -5.62769 1440.38 -5.73529 1440.4 -5.77646C1440.41 -5.80157 1440.4 -5.80196 1440.4 -5.80241L1440.39 -5.80768L1440.35 -5.82835L1440.16 -5.90964C1440 -5.98135 1439.76 -6.08786 1439.43 -6.22745C1438.79 -6.50662 1437.83 -6.91811 1436.56 -7.44821C1434.02 -8.50845 1430.25 -10.0432 1425.32 -11.9429C1415.45 -15.7423 1400.92 -21.0018 1382.27 -26.845C1344.99 -38.5315 1291.24 -52.554 1225.4 -61.9022C1093.71 -80.5985 913.622 -80.5994 720.023 -5.81082C526.622 68.9012 346.712 68.902 215.148 50.2229C149.367 40.8834 95.6749 26.8743 58.4308 15.2013C39.8089 9.36478 25.2994 4.11241 15.4472 0.319977C10.5211 -1.57623 6.75937 -3.10745 4.23011 -4.16418C2.96548 -4.69254 2.00897 -5.10229 1.3691 -5.37973C1.04916 -5.51845 0.808385 -5.62408 0.647832 -5.69495C0.567556 -5.73038 0.507335 -5.75711 0.467304 -5.77493L0.422416 -5.79495L0.411359 -5.7999C0.409 -5.80095 0.40791 -5.80144 0.203125 -5.34531C-0.00166033 -4.88916 -0.000209883 -4.88852 0.00250882 -4.8873L0.0142882 -4.88202L0.060628 -4.86136C0.101629 -4.84311 0.162825 -4.81595 0.244082 -4.78008C0.406596 -4.70836 0.649355 -4.60184 0.971296 -4.46225C1.61518 -4.18307 2.57578 -3.77159 3.8446 -3.24147C6.38223 -2.18124 10.1527 -0.646515 15.088 1.25323C24.9584 5.05267 39.488 10.3121 58.1317 16.1555C95.4189 27.8421 149.164 41.8646 215.008 51.2129C346.694 69.9094 526.784 69.9106 720.383 -4.87799ZM1225.26 -36.9121C1093.69 -55.591 913.784 -55.5901 720.383 19.122C526.784 93.9106 346.694 93.9094 215.008 75.2129C149.164 65.8646 95.4189 51.8421 58.1317 40.1555C39.488 34.3121 24.9584 29.0527 15.088 25.2532C10.1527 23.3535 6.38223 21.8188 3.8446 20.7585C2.57578 20.2284 1.61518 19.8169 0.971296 19.5378C0.649355 19.3982 0.406596 19.2916 0.244082 19.2199C0.162825 19.1841 0.101629 19.1569 0.060628 19.1386L0.0142882 19.118L0.00250882 19.1127C-0.000209883 19.1115 -0.00166033 19.1108 0.203125 18.6547C0.40791 18.1986 0.409 18.1991 0.411359 18.2001L0.422416 18.205L0.467304 18.2251C0.507335 18.2429 0.567556 18.2696 0.647832 18.3051C0.808385 18.3759 1.04916 18.4816 1.3691 18.6203C2.00897 18.8977 2.96548 19.3075 4.23011 19.8358C6.75937 20.8925 10.5211 22.4238 15.4472 24.32C25.2994 28.1124 39.8089 33.3648 58.4308 39.2013C95.6749 50.8743 149.367 64.8834 215.148 74.2229C346.712 92.902 526.622 92.9012 720.023 18.1892C913.622 -56.5994 1093.71 -56.5985 1225.4 -37.9022C1291.24 -28.554 1344.99 -14.5315 1382.27 -2.84505C1400.92 2.99825 1415.45 8.25769 1425.32 12.0571C1430.25 13.9568 1434.02 15.4915 1436.56 16.5518C1437.83 17.0819 1438.79 17.4934 1439.43 17.7726C1439.57 17.8321 1439.7 17.8856 1439.8 17.933C1439.95 17.9967 1440.07 18.0492 1440.16 18.0904L1440.35 18.1716L1440.39 18.1923L1440.4 18.1976C1440.41 18.1988 1440.41 18.1995 1440.2 18.6556C1440 19.1117 1440 19.1112 1439.99 19.1102L1439.98 19.1052L1439.94 19.0852L1439.76 19.0052C1439.6 18.9344 1439.36 18.8287 1439.04 18.69C1438.4 18.4126 1437.44 18.0028 1436.18 17.4745C1433.65 16.4178 1429.89 14.8866 1424.96 12.9904C1415.11 9.19795 1400.6 3.94562 1381.98 -1.89082C1344.73 -13.5638 1291.04 -27.5727 1225.26 -36.9121ZM720.383 43.122C913.784 -31.5901 1093.69 -31.591 1225.26 -12.9121C1291.04 -3.57272 1344.73 10.4362 1381.98 22.1092C1400.6 27.9456 1415.11 33.198 1424.96 36.9904C1429.89 38.8866 1433.65 40.4178 1436.18 41.4745C1437.44 42.0028 1438.4 42.4126 1439.04 42.69L1439.31 42.8071L1439.55 42.9137L1439.76 43.0052L1439.94 43.0852L1439.98 43.1052L1439.99 43.1102C1440 43.1105 1440 43.1107 1440 43.1021C1440.01 43.0927 1440.01 43.0729 1440.03 43.0314L1440.07 42.9438L1440.2 42.6556L1440.32 42.3964C1440.35 42.3197 1440.37 42.2727 1440.39 42.2439C1440.41 42.1986 1440.41 42.1982 1440.4 42.1976L1440.39 42.1923L1440.35 42.1716L1440.16 42.0904C1440 42.0186 1439.76 41.9121 1439.43 41.7726C1438.79 41.4934 1437.83 41.0819 1436.56 40.5518C1434.02 39.4915 1430.25 37.9568 1425.32 36.0571C1415.45 32.2577 1400.92 26.9982 1382.27 21.155C1344.99 9.46846 1291.24 -4.55399 1225.4 -13.9022C1093.71 -32.5985 913.622 -32.5994 720.023 42.1892C526.622 116.901 346.712 116.902 215.148 98.2228C149.367 88.8834 95.6749 74.8743 58.4308 63.2013C39.8089 57.3648 25.2994 52.1124 15.4472 48.32C10.5211 46.4238 6.75937 44.8925 4.23011 43.8358C2.96548 43.3075 2.00897 42.8977 1.3691 42.6203C1.04916 42.4816 0.808385 42.3759 0.647832 42.3051C0.567556 42.2696 0.507335 42.2429 0.467304 42.2251L0.422416 42.205L0.411359 42.2001C0.409 42.1991 0.40791 42.1986 0.203125 42.6547C-0.00166033 43.1108 -0.000209883 43.1115 0.00250882 43.1127L0.0142882 43.118L0.060628 43.1386C0.101629 43.1569 0.162825 43.1841 0.244082 43.2199C0.406596 43.2916 0.649355 43.3982 0.971296 43.5378C1.61518 43.8169 2.57578 44.2284 3.8446 44.7585C6.38223 45.8188 10.1527 47.3535 15.088 49.2532C24.9584 53.0527 39.488 58.3121 58.1317 64.1555C95.4189 75.8421 149.164 89.8646 215.008 99.2129C346.694 117.909 526.784 117.911 720.383 43.122ZM1225.26 11.0879C1093.69 -7.591 913.784 -7.59006 720.383 67.122C526.784 141.911 346.694 141.909 215.008 123.213C149.164 113.865 95.4189 99.842 58.1317 88.1555C39.488 82.3121 24.9584 77.0527 15.088 73.2532C10.1527 71.3535 6.38223 69.8188 3.8446 68.7585C2.57578 68.2284 1.61518 67.8169 0.971296 67.5378C0.649355 67.3982 0.406596 67.2916 0.244082 67.2199C0.162825 67.1841 0.101629 67.1569 0.060628 67.1386L0.0142882 67.118L0.00250882 67.1127C-0.000209883 67.1115 -0.00166033 67.1108 0.203125 66.6547C0.40791 66.1986 0.409 66.1991 0.411359 66.2001L0.422416 66.205L0.467304 66.2251C0.507335 66.2429 0.567556 66.2696 0.647832 66.3051C0.808385 66.3759 1.04916 66.4816 1.3691 66.6203C2.00897 66.8977 2.96548 67.3075 4.23011 67.8358C6.75937 68.8925 10.5211 70.4238 15.4472 72.32C25.2994 76.1124 39.8089 81.3648 58.4308 87.2013C95.6749 98.8743 149.367 112.883 215.148 122.223C346.712 140.902 526.622 140.901 720.023 66.1892C913.622 -8.59941 1093.71 -8.59846 1225.4 10.0978C1291.24 19.446 1344.99 33.4685 1382.27 45.155C1400.92 50.9982 1415.45 56.2577 1425.32 60.0571C1430.25 61.9568 1434.02 63.4915 1436.56 64.5518C1437.83 65.0819 1438.79 65.4934 1439.43 65.7726C1439.76 65.9121 1440 66.0186 1440.16 66.0904L1440.35 66.1716L1440.39 66.1923L1440.4 66.1976C1440.41 66.1982 1440.41 66.1986 1440.38 66.2494C1440.36 66.3044 1440.31 66.4184 1440.2 66.6556C1440 67.1117 1440 67.1112 1439.99 67.1102L1439.98 67.1052L1439.94 67.0852L1439.76 67.0052C1439.67 66.9668 1439.56 66.918 1439.43 66.8593C1439.31 66.8099 1439.18 66.7534 1439.04 66.69C1438.4 66.4126 1437.44 66.0028 1436.18 65.4745C1433.65 64.4178 1429.89 62.8866 1424.96 60.9904C1415.11 57.198 1400.6 51.9456 1381.98 46.1092C1344.73 34.4362 1291.04 20.4273 1225.26 11.0879ZM720.383 91.122C913.784 16.4099 1093.69 16.409 1225.26 35.0879C1291.04 44.4273 1344.73 58.4362 1381.98 70.1092C1400.6 75.9456 1415.11 81.198 1424.96 84.9904C1429.89 86.8866 1433.65 88.4178 1436.18 89.4745C1437.44 90.0028 1438.4 90.4126 1439.04 90.69C1439.21 90.7654 1439.36 90.8309 1439.49 90.8865C1439.59 90.9332 1439.69 90.9729 1439.76 91.0052L1439.94 91.0852L1439.98 91.1052L1439.99 91.1102C1440 91.1112 1440 91.1117 1440.2 90.6556C1440.41 90.1995 1440.41 90.1988 1440.4 90.1976L1440.39 90.1923L1440.35 90.1716L1440.16 90.0904C1440 90.0186 1439.76 89.9121 1439.43 89.7726C1438.79 89.4934 1437.83 89.0819 1436.56 88.5518C1434.02 87.4915 1430.25 85.9568 1425.32 84.0571C1415.45 80.2577 1400.92 74.9982 1382.27 69.155C1344.99 57.4685 1291.24 43.446 1225.4 34.0978C1093.71 15.4015 913.622 15.4006 720.023 90.1892C526.622 164.901 346.712 164.902 215.148 146.223C149.367 136.883 95.6749 122.874 58.4308 111.201C39.8089 105.365 25.2994 100.112 15.4472 96.32C10.5211 94.4238 6.75937 92.8925 4.23011 91.8358C2.96548 91.3075 2.00897 90.8977 1.3691 90.6203C1.04916 90.4816 0.808385 90.3759 0.647832 90.3051C0.567556 90.2696 0.507335 90.2429 0.467304 90.2251L0.422416 90.205L0.411359 90.2001C0.409 90.199 0.40791 90.1985 0.203125 90.6547C-0.00166033 91.1108 -0.000209883 91.1115 0.00250882 91.1127L0.0142882 91.118L0.060628 91.1386C0.101629 91.1569 0.162825 91.1841 0.244082 91.2199C0.406596 91.2916 0.649355 91.3982 0.971296 91.5378C1.61518 91.8169 2.57578 92.2284 3.8446 92.7585C6.38223 93.8188 10.1527 95.3535 15.088 97.2532C24.9584 101.053 39.488 106.312 58.1317 112.155C95.4189 123.842 149.164 137.865 215.008 147.213C346.694 165.909 526.784 165.911 720.383 91.122ZM1225.26 59.0879C1093.69 40.409 913.784 40.4099 720.383 115.122C526.784 189.911 346.694 189.909 215.008 171.213C149.164 161.865 95.4189 147.842 58.1317 136.155C39.488 130.312 24.9584 125.053 15.088 121.253C10.1527 119.353 6.38223 117.819 3.8446 116.759C2.57578 116.228 1.61518 115.817 0.971296 115.538C0.649355 115.398 0.406596 115.292 0.244082 115.22C0.162825 115.184 0.101629 115.157 0.060628 115.139L0.0142882 115.118L0.00250882 115.113C-0.000209883 115.111 -0.00166033 115.111 0.203125 114.655C0.40791 114.199 0.409 114.199 0.411359 114.2L0.422416 114.205L0.467304 114.225C0.507335 114.243 0.567556 114.27 0.647832 114.305C0.808385 114.376 1.04916 114.482 1.3691 114.62C2.00897 114.898 2.96548 115.307 4.23011 115.836C6.75937 116.893 10.5211 118.424 15.4472 120.32C25.2994 124.112 39.8089 129.365 58.4308 135.201C95.6749 146.874 149.367 160.883 215.148 170.223C346.712 188.902 526.622 188.901 720.023 114.189C913.622 39.4006 1093.71 39.4015 1225.4 58.0978C1291.24 67.446 1344.99 81.4685 1382.27 93.1549C1400.92 98.9982 1415.45 104.258 1425.32 108.057C1430.25 109.957 1434.02 111.492 1436.56 112.552C1437.83 113.082 1438.79 113.493 1439.43 113.773C1439.76 113.912 1440 114.019 1440.16 114.09L1440.35 114.172L1440.39 114.192L1440.4 114.198C1440.41 114.199 1440.41 114.199 1440.2 114.656C1440 115.112 1440 115.111 1439.99 115.11L1439.98 115.105L1439.94 115.085L1439.76 115.005C1439.6 114.934 1439.36 114.829 1439.04 114.69C1438.4 114.413 1437.44 114.003 1436.18 113.474C1433.65 112.418 1429.89 110.887 1424.96 108.99C1415.11 105.198 1400.6 99.9456 1381.98 94.1092C1344.73 82.4362 1291.04 68.4273 1225.26 59.0879ZM720.383 139.122C913.784 64.4099 1093.69 64.409 1225.26 83.0879C1291.04 92.4273 1344.73 106.436 1381.98 118.109C1400.6 123.946 1415.11 129.198 1424.96 132.99C1429.89 134.887 1433.65 136.418 1436.18 137.474C1437.44 138.003 1438.4 138.413 1439.04 138.69C1439.26 138.785 1439.44 138.864 1439.58 138.928L1439.76 139.005L1439.94 139.085L1439.98 139.105L1439.99 139.11C1440 139.111 1440 139.112 1440.2 138.656C1440.41 138.199 1440.41 138.199 1440.4 138.198L1440.39 138.192L1440.35 138.172L1440.16 138.09L1439.98 138.008L1439.87 137.961L1439.62 137.852L1439.43 137.773C1438.98 137.575 1438.37 137.312 1437.6 136.987L1437.22 136.827C1437.01 136.739 1436.79 136.647 1436.56 136.552C1434.02 135.492 1430.25 133.957 1425.32 132.057C1415.45 128.258 1400.92 122.998 1382.27 117.155C1344.99 105.468 1291.24 91.446 1225.4 82.0978C1093.71 63.4015 913.622 63.4006 720.023 138.189C526.622 212.901 346.712 212.902 215.148 194.223C149.367 184.883 95.6749 170.874 58.4308 159.201C39.8089 153.365 25.2994 148.112 15.4472 144.32C10.5211 142.424 6.75937 140.893 4.23011 139.836C2.96548 139.307 2.00897 138.898 1.3691 138.62C1.04916 138.482 0.808385 138.376 0.647832 138.305C0.567556 138.27 0.507335 138.243 0.467304 138.225L0.422416 138.205L0.411359 138.2C0.409 138.199 0.40791 138.199 0.203125 138.655C-0.00166033 139.111 -0.000209883 139.111 0.00250882 139.113L0.0142882 139.118L0.060628 139.139C0.101629 139.157 0.162825 139.184 0.244082 139.22C0.406596 139.292 0.649355 139.398 0.971296 139.538C1.61518 139.817 2.57578 140.228 3.8446 140.759C6.38223 141.819 10.1527 143.353 15.088 145.253C24.9584 149.053 39.488 154.312 58.1317 160.155C95.4189 171.842 149.164 185.865 215.008 195.213C346.694 213.909 526.784 213.911 720.383 139.122ZM1225.26 107.088C1093.69 88.409 913.784 88.4099 720.383 163.122C526.784 237.911 346.694 237.909 215.008 219.213C149.164 209.865 95.4189 195.842 58.1317 184.155C39.488 178.312 24.9584 173.053 15.088 169.253C10.1527 167.353 6.38223 165.819 3.8446 164.759C2.57578 164.228 1.61518 163.817 0.971296 163.538C0.649355 163.398 0.406596 163.292 0.244082 163.22C0.162825 163.184 0.101629 163.157 0.060628 163.139L0.0142882 163.118L0.00250882 163.113C-0.000209883 163.111 -0.00166033 163.111 0.203125 162.655C0.40791 162.199 0.409 162.199 0.411359 162.2L0.422416 162.205L0.467304 162.225C0.507335 162.243 0.567556 162.27 0.647832 162.305C0.808385 162.376 1.04916 162.482 1.3691 162.62C2.00897 162.898 2.96548 163.307 4.23011 163.836C6.75937 164.893 10.5211 166.424 15.4472 168.32C25.2994 172.112 39.8089 177.365 58.4308 183.201C95.6749 194.874 149.367 208.883 215.148 218.223C346.712 236.902 526.622 236.901 720.023 162.189C913.622 87.4006 1093.71 87.4015 1225.4 106.098C1291.24 115.446 1344.99 129.468 1382.27 141.155C1400.92 146.998 1415.45 152.258 1425.32 156.057C1430.25 157.957 1434.02 159.492 1436.56 160.552C1437.83 161.082 1438.79 161.493 1439.43 161.773C1439.76 161.912 1440 162.019 1440.16 162.09L1440.35 162.172L1440.39 162.192L1440.4 162.198C1440.41 162.199 1440.41 162.199 1440.2 162.656C1440.11 162.87 1440.06 162.984 1440.03 163.044C1440 163.111 1440 163.111 1439.99 163.11L1439.98 163.105L1439.94 163.085L1439.76 163.005C1439.67 162.966 1439.56 162.916 1439.42 162.856C1439.31 162.807 1439.18 162.752 1439.04 162.69C1438.79 162.584 1438.5 162.459 1438.17 162.316C1437.62 162.083 1436.96 161.801 1436.18 161.474C1433.65 160.418 1429.89 158.887 1424.96 156.99C1415.11 153.198 1400.6 147.946 1381.98 142.109C1344.73 130.436 1291.04 116.427 1225.26 107.088ZM720.383 187.122C913.784 112.41 1093.69 112.409 1225.26 131.088C1291.04 140.427 1344.73 154.436 1381.98 166.109C1400.6 171.946 1415.11 177.198 1424.96 180.99C1429.89 182.887 1433.65 184.418 1436.18 185.474C1437.44 186.003 1438.4 186.413 1439.04 186.69C1439.22 186.77 1439.38 186.839 1439.51 186.897L1439.76 187.005L1439.94 187.085L1439.98 187.105L1439.99 187.11C1440 187.111 1440 187.111 1440.02 187.067C1440.04 187.015 1440.09 186.902 1440.2 186.656C1440.41 186.199 1440.41 186.199 1440.4 186.198L1440.39 186.192L1440.35 186.172L1440.16 186.09C1440 186.019 1439.76 185.912 1439.43 185.773C1438.79 185.493 1437.83 185.082 1436.56 184.552C1434.02 183.492 1430.25 181.957 1425.32 180.057C1415.45 176.258 1400.92 170.998 1382.27 165.155C1344.99 153.468 1291.24 139.446 1225.4 130.098C1093.71 111.402 913.622 111.401 720.023 186.189C526.622 260.901 346.712 260.902 215.148 242.223C149.367 232.883 95.6749 218.874 58.4308 207.201C39.8089 201.365 25.2994 196.112 15.4472 192.32C10.5211 190.424 6.75937 188.893 4.23011 187.836C2.96548 187.307 2.00897 186.898 1.3691 186.62C1.04916 186.482 0.808385 186.376 0.647832 186.305C0.567556 186.27 0.507335 186.243 0.467304 186.225L0.422416 186.205L0.411359 186.2C0.409 186.199 0.40791 186.199 0.203125 186.655C-0.00166033 187.111 -0.000209883 187.111 0.00250882 187.113L0.0142882 187.118L0.060628 187.139C0.101629 187.157 0.162825 187.184 0.244082 187.22C0.406596 187.292 0.649355 187.398 0.971296 187.538C1.61518 187.817 2.57578 188.228 3.8446 188.759C6.38223 189.819 10.1527 191.353 15.088 193.253C24.9584 197.053 39.488 202.312 58.1317 208.155C95.4189 219.842 149.164 233.865 215.008 243.213C346.694 261.909 526.784 261.911 720.383 187.122ZM1225.26 155.088C1093.69 136.409 913.784 136.41 720.383 211.122C526.784 285.911 346.694 285.909 215.008 267.213C149.164 257.865 95.4189 243.842 58.1317 232.155C39.488 226.312 24.9584 221.053 15.088 217.253C10.1527 215.353 6.38223 213.819 3.8446 212.759C2.57578 212.228 1.61518 211.817 0.971296 211.538C0.649355 211.398 0.406596 211.292 0.244082 211.22C0.162825 211.184 0.101629 211.157 0.060628 211.139L0.0142882 211.118L0.00250882 211.113C-0.000209883 211.111 -0.00166033 211.111 0.203125 210.655C0.40791 210.199 0.409 210.199 0.411359 210.2L0.422416 210.205L0.467304 210.225C0.507335 210.243 0.567556 210.27 0.647832 210.305C0.808385 210.376 1.04916 210.482 1.3691 210.62C2.00897 210.898 2.96548 211.307 4.23011 211.836C6.75937 212.893 10.5211 214.424 15.4472 216.32C25.2994 220.112 39.8089 225.365 58.4308 231.201C95.6749 242.874 149.367 256.883 215.148 266.223C346.712 284.902 526.622 284.901 720.023 210.189C913.622 135.401 1093.71 135.402 1225.4 154.098C1291.24 163.446 1344.99 177.468 1382.27 189.155C1400.92 194.998 1415.45 200.258 1425.32 204.057C1430.25 205.957 1434.02 207.492 1436.56 208.552C1437.83 209.082 1438.79 209.493 1439.43 209.773C1439.76 209.912 1440 210.019 1440.16 210.09L1440.35 210.172L1440.39 210.192L1440.4 210.198C1440.41 210.199 1440.41 210.199 1440.2 210.656C1440 211.112 1440 211.111 1439.99 211.11L1439.98 211.105L1439.94 211.085L1439.76 211.005C1439.6 210.934 1439.36 210.829 1439.04 210.69C1438.4 210.413 1437.44 210.003 1436.18 209.474C1433.65 208.418 1429.89 206.887 1424.96 204.99C1415.11 201.198 1400.6 195.946 1381.98 190.109C1344.73 178.436 1291.04 164.427 1225.26 155.088ZM720.383 235.122C913.784 160.41 1093.69 160.409 1225.26 179.088C1291.04 188.427 1344.73 202.436 1381.98 214.109C1400.6 219.946 1415.11 225.198 1424.96 228.99C1429.89 230.887 1433.65 232.418 1436.18 233.474C1437.44 234.003 1438.4 234.413 1439.04 234.69L1439.33 234.819C1439.51 234.896 1439.65 234.958 1439.76 235.005L1439.94 235.085L1439.98 235.105L1439.99 235.11C1440 235.111 1440 235.112 1440.2 234.656C1440.41 234.199 1440.41 234.199 1440.4 234.198L1440.39 234.192L1440.35 234.172L1440.16 234.09L1439.92 233.982C1439.78 233.924 1439.62 233.854 1439.43 233.773C1438.79 233.493 1437.83 233.082 1436.56 232.552C1434.02 231.492 1430.25 229.957 1425.32 228.057C1415.45 224.258 1400.92 218.998 1382.27 213.155C1344.99 201.468 1291.24 187.446 1225.4 178.098C1093.71 159.402 913.622 159.401 720.023 234.189C526.622 308.901 346.712 308.902 215.148 290.223C149.367 280.883 95.6749 266.874 58.4308 255.201C39.8089 249.365 25.2994 244.112 15.4472 240.32C10.5211 238.424 6.75937 236.893 4.23011 235.836C2.96548 235.307 2.00897 234.898 1.3691 234.62C1.04916 234.482 0.808385 234.376 0.647832 234.305C0.567556 234.27 0.507335 234.243 0.467304 234.225L0.422416 234.205L0.411359 234.2C0.409 234.199 0.40791 234.199 0.203125 234.655C-0.00166033 235.111 -0.000209883 235.111 0.00250882 235.113L0.0142882 235.118L0.060628 235.139C0.101629 235.157 0.162825 235.184 0.244082 235.22C0.406596 235.292 0.649355 235.398 0.971296 235.538C1.61518 235.817 2.57578 236.228 3.8446 236.759C6.38223 237.819 10.1527 239.353 15.088 241.253C24.9584 245.053 39.488 250.312 58.1317 256.155C95.4189 267.842 149.164 281.865 215.008 291.213C346.694 309.909 526.784 309.911 720.383 235.122ZM1225.26 203.088C1093.69 184.409 913.784 184.41 720.383 259.122C526.784 333.911 346.694 333.909 215.008 315.213C149.164 305.865 95.4189 291.842 58.1317 280.155C39.488 274.312 24.9584 269.053 15.088 265.253C10.1527 263.353 6.38223 261.819 3.8446 260.759C2.57578 260.228 1.61518 259.817 0.971296 259.538C0.649355 259.398 0.406596 259.292 0.244082 259.22C0.162825 259.184 0.101629 259.157 0.060628 259.139L0.0142882 259.118L0.00250882 259.113C-0.000209883 259.111 -0.00166033 259.111 0.203125 258.655C0.40791 258.199 0.409 258.199 0.411359 258.2L0.422416 258.205L0.467304 258.225C0.507335 258.243 0.567556 258.27 0.647832 258.305C0.808385 258.376 1.04916 258.482 1.3691 258.62C2.00897 258.898 2.96548 259.307 4.23011 259.836C6.75937 260.893 10.5211 262.424 15.4472 264.32C25.2994 268.112 39.8089 273.365 58.4308 279.201C95.6749 290.874 149.367 304.883 215.148 314.223C346.712 332.902 526.622 332.901 720.023 258.189C913.622 183.401 1093.71 183.402 1225.4 202.098C1291.24 211.446 1344.99 225.468 1382.27 237.155C1400.92 242.998 1415.45 248.258 1425.32 252.057C1430.25 253.957 1434.02 255.492 1436.56 256.552C1437.83 257.082 1438.79 257.493 1439.43 257.773C1439.76 257.912 1440 258.019 1440.16 258.09L1440.35 258.172L1440.39 258.192L1440.4 258.198C1440.4 258.198 1440.4 258.198 1440.4 258.199C1440.4 258.2 1440.4 258.203 1440.4 258.213C1440.4 258.222 1440.39 258.236 1440.38 258.259C1440.35 258.317 1440.3 258.431 1440.2 258.656L1440.1 258.874L1440.05 259.002C1440 259.111 1440 259.111 1439.99 259.11L1439.98 259.105L1439.94 259.085L1439.76 259.005C1439.6 258.934 1439.36 258.829 1439.04 258.69C1438.4 258.413 1437.44 258.003 1436.18 257.474C1433.65 256.418 1429.89 254.887 1424.96 252.99C1415.11 249.198 1400.6 243.946 1381.98 238.109C1344.73 226.436 1291.04 212.427 1225.26 203.088ZM720.383 283.122C913.784 208.41 1093.69 208.409 1225.26 227.088C1291.04 236.427 1344.73 250.436 1381.98 262.109C1400.6 267.946 1415.11 273.198 1424.96 276.99C1429.89 278.887 1433.65 280.418 1436.18 281.474C1436.63 281.665 1437.05 281.841 1437.43 282C1438.09 282.282 1438.63 282.513 1439.04 282.69C1439.36 282.829 1439.6 282.934 1439.76 283.005L1439.94 283.085L1439.98 283.105L1439.99 283.11C1440 283.111 1440 283.112 1440.2 282.656L1440.33 282.382L1440.37 282.288L1440.38 282.251C1440.41 282.199 1440.41 282.198 1440.4 282.198L1440.39 282.192L1440.35 282.172L1440.16 282.09C1440 282.019 1439.76 281.912 1439.43 281.773C1438.79 281.493 1437.83 281.082 1436.56 280.552C1434.02 279.492 1430.25 277.957 1425.32 276.057C1415.45 272.258 1400.92 266.998 1382.27 261.155C1344.99 249.468 1291.24 235.446 1225.4 226.098C1093.71 207.402 913.622 207.401 720.023 282.189C526.622 356.901 346.712 356.902 215.148 338.223C149.367 328.883 95.6749 314.874 58.4308 303.201C39.8089 297.365 25.2994 292.112 15.4472 288.32C10.5211 286.424 6.75937 284.893 4.23011 283.836C2.96548 283.307 2.00897 282.898 1.3691 282.62C1.04916 282.482 0.808385 282.376 0.647832 282.305C0.567556 282.27 0.507335 282.243 0.467304 282.225L0.422416 282.205L0.411359 282.2C0.409 282.199 0.40791 282.199 0.203125 282.655C-0.00166033 283.111 -0.000209883 283.111 0.00250882 283.113L0.0142882 283.118L0.060628 283.139C0.101629 283.157 0.162825 283.184 0.244082 283.22C0.406596 283.292 0.649355 283.398 0.971296 283.538C1.61518 283.817 2.57578 284.228 3.8446 284.759C6.38223 285.819 10.1527 287.353 15.088 289.253C24.9584 293.053 39.488 298.312 58.1317 304.155C95.4189 315.842 149.164 329.865 215.008 339.213C346.694 357.909 526.784 357.911 720.383 283.122ZM1225.26 251.088C1093.69 232.409 913.784 232.41 720.383 307.122C526.784 381.911 346.694 381.909 215.008 363.213C149.164 353.865 95.4189 339.842 58.1317 328.155C39.488 322.312 24.9584 317.053 15.088 313.253C10.1527 311.353 6.38223 309.819 3.8446 308.759C2.57578 308.228 1.61518 307.817 0.971296 307.538C0.649355 307.398 0.406596 307.292 0.244082 307.22C0.162825 307.184 0.101629 307.157 0.060628 307.139L0.0142882 307.118L0.00250882 307.113C-0.000209883 307.111 -0.00166033 307.111 0.203125 306.655C0.40791 306.199 0.409 306.199 0.411359 306.2L0.422416 306.205L0.467304 306.225L0.555682 306.264L0.647832 306.305C0.808385 306.376 1.04916 306.482 1.3691 306.62C2.00897 306.898 2.96548 307.307 4.23011 307.836C6.75937 308.893 10.5211 310.424 15.4472 312.32C25.2994 316.112 39.8089 321.365 58.4308 327.201C95.6749 338.874 149.367 352.883 215.148 362.223C346.712 380.902 526.622 380.901 720.023 306.189C913.622 231.401 1093.71 231.402 1225.4 250.098C1291.24 259.446 1344.99 273.468 1382.27 285.155C1400.92 290.998 1415.45 296.258 1425.32 300.057C1430.25 301.957 1434.02 303.492 1436.56 304.552C1437.83 305.082 1438.79 305.493 1439.43 305.773C1439.76 305.912 1440 306.019 1440.16 306.09L1440.35 306.172L1440.39 306.192L1440.4 306.198C1440.41 306.199 1440.41 306.199 1440.2 306.656C1440.11 306.866 1440.06 306.979 1440.03 307.04C1440 307.111 1440 307.111 1439.99 307.11L1439.98 307.105L1439.94 307.085L1439.76 307.005C1439.67 306.968 1439.57 306.921 1439.44 306.864L1439.16 306.745L1439.04 306.69C1438.4 306.413 1437.44 306.003 1436.18 305.474C1433.65 304.418 1429.89 302.887 1424.96 300.99C1415.11 297.198 1400.6 291.946 1381.98 286.109C1344.73 274.436 1291.04 260.427 1225.26 251.088ZM720.383 331.122C913.784 256.41 1093.69 256.409 1225.26 275.088C1291.04 284.427 1344.73 298.436 1381.98 310.109C1400.6 315.946 1415.11 321.198 1424.96 324.99C1429.89 326.887 1433.65 328.418 1436.18 329.474C1437.44 330.003 1438.4 330.413 1439.04 330.69C1439.36 330.829 1439.6 330.934 1439.76 331.005L1439.94 331.085L1439.98 331.105L1439.99 331.11C1440 331.111 1440 331.112 1440.2 330.656C1440.26 330.528 1440.3 330.436 1440.33 330.37C1440.36 330.307 1440.38 330.267 1440.39 330.242C1440.41 330.199 1440.4 330.198 1440.4 330.198L1440.39 330.192L1440.35 330.172L1440.16 330.09C1440 330.019 1439.76 329.912 1439.43 329.773C1438.79 329.493 1437.83 329.082 1436.56 328.552C1434.02 327.492 1430.25 325.957 1425.32 324.057C1415.45 320.258 1400.92 314.998 1382.27 309.155C1344.99 297.468 1291.24 283.446 1225.4 274.098C1093.71 255.402 913.622 255.401 720.023 330.189C526.622 404.901 346.712 404.902 215.148 386.223C149.367 376.883 95.6749 362.874 58.4308 351.201C39.8089 345.365 25.2994 340.112 15.4472 336.32C10.5211 334.424 6.75937 332.893 4.23011 331.836C2.96548 331.307 2.00897 330.898 1.3691 330.62C1.04916 330.482 0.808385 330.376 0.647832 330.305C0.567556 330.27 0.507335 330.243 0.467304 330.225L0.422416 330.205L0.411359 330.2C0.409 330.199 0.40791 330.199 0.203125 330.655C-0.00166033 331.111 -0.000209883 331.111 0.00250882 331.113L0.0142882 331.118L0.060628 331.139C0.101629 331.157 0.162825 331.184 0.244082 331.22C0.406596 331.292 0.649355 331.398 0.971296 331.538C1.61518 331.817 2.57578 332.228 3.8446 332.759C6.38223 333.819 10.1527 335.353 15.088 337.253C24.9584 341.053 39.488 346.312 58.1317 352.156C95.4189 363.842 149.164 377.865 215.008 387.213C346.694 405.909 526.784 405.911 720.383 331.122ZM1225.26 299.088C1093.69 280.409 913.784 280.41 720.383 355.122C526.784 429.911 346.694 429.909 215.008 411.213C149.164 401.865 95.4189 387.842 58.1317 376.156C39.488 370.312 24.9584 365.053 15.088 361.253C10.1527 359.354 6.38223 357.819 3.8446 356.759C2.57578 356.228 1.61518 355.817 0.971296 355.538C0.649355 355.398 0.406596 355.292 0.244082 355.22C0.162825 355.184 0.101629 355.157 0.060628 355.139L0.0142882 355.118L0.00250882 355.113C-0.000209883 355.112 -0.00166033 355.111 0.203125 354.655C0.40791 354.199 0.409 354.199 0.411359 354.2L0.422416 354.205L0.467304 354.225C0.507335 354.243 0.567556 354.27 0.647832 354.305C0.808385 354.376 1.04916 354.482 1.3691 354.62C2.00897 354.898 2.96548 355.307 4.23011 355.836C6.75937 356.893 10.5211 358.424 15.4472 360.32C25.2994 364.112 39.8089 369.365 58.4308 375.201C95.6749 386.874 149.367 400.883 215.148 410.223C346.712 428.902 526.622 428.901 720.023 354.189C913.622 279.401 1093.71 279.402 1225.4 298.098C1291.24 307.446 1344.99 321.468 1382.27 333.155C1400.92 338.998 1415.45 344.258 1425.32 348.057C1430.25 349.957 1434.02 351.492 1436.56 352.552C1437.83 353.082 1438.79 353.493 1439.43 353.773C1439.76 353.912 1440 354.019 1440.16 354.09L1440.35 354.172L1440.39 354.192L1440.4 354.198C1440.41 354.199 1440.41 354.199 1440.2 354.656C1440 355.112 1440 355.111 1439.99 355.11L1439.98 355.105L1439.94 355.085L1439.76 355.005C1439.6 354.934 1439.36 354.829 1439.04 354.69C1438.4 354.413 1437.44 354.003 1436.18 353.474C1433.65 352.418 1429.89 350.887 1424.96 348.99C1415.11 345.198 1400.6 339.946 1381.98 334.109C1344.73 322.436 1291.04 308.427 1225.26 299.088ZM720.383 379.122C913.784 304.41 1093.69 304.409 1225.26 323.088C1291.04 332.427 1344.73 346.436 1381.98 358.109C1400.6 363.946 1415.11 369.198 1424.96 372.99C1429.89 374.887 1433.65 376.418 1436.18 377.474C1437.44 378.003 1438.4 378.413 1439.04 378.69C1439.21 378.763 1439.35 378.828 1439.48 378.882C1439.59 378.931 1439.68 378.972 1439.76 379.005L1439.94 379.085L1439.98 379.105L1439.99 379.11C1440 379.111 1440 379.111 1440.05 378.988L1440.11 378.854L1440.2 378.656C1440.41 378.199 1440.41 378.199 1440.4 378.198L1440.39 378.192L1440.35 378.172L1440.16 378.09L1439.93 377.988C1439.79 377.928 1439.63 377.856 1439.43 377.773L1439.19 377.665L1438.86 377.524C1438.73 377.467 1438.59 377.407 1438.44 377.343C1438.21 377.245 1437.96 377.139 1437.69 377.025C1437.51 376.951 1437.33 376.874 1437.14 376.794C1436.96 376.716 1436.76 376.636 1436.56 376.552C1434.02 375.492 1430.25 373.957 1425.32 372.057C1415.45 368.258 1400.92 362.998 1382.27 357.155C1344.99 345.468 1291.24 331.446 1225.4 322.098C1093.71 303.402 913.622 303.401 720.023 378.189C526.622 452.901 346.712 452.902 215.148 434.223C149.367 424.883 95.6749 410.874 58.4308 399.201C39.8089 393.365 25.2994 388.112 15.4472 384.32C10.5211 382.424 6.75937 380.893 4.23011 379.836C2.96548 379.307 2.00897 378.898 1.3691 378.62C1.04916 378.482 0.808385 378.376 0.647832 378.305C0.567556 378.27 0.507335 378.243 0.467304 378.225L0.422416 378.205L0.411359 378.2C0.409 378.199 0.40791 378.199 0.203125 378.655C-0.00166033 379.111 -0.000209883 379.112 0.00250882 379.113L0.0142882 379.118L0.060628 379.139C0.101629 379.157 0.162825 379.184 0.244082 379.22C0.406596 379.292 0.649355 379.398 0.971296 379.538C1.61518 379.817 2.57578 380.228 3.8446 380.759C6.38223 381.819 10.1527 383.354 15.088 385.253C24.9584 389.053 39.488 394.312 58.1317 400.156C95.4189 411.842 149.164 425.865 215.008 435.213C346.694 453.909 526.784 453.911 720.383 379.122ZM1225.26 347.088C1093.69 328.409 913.784 328.41 720.383 403.122C526.784 477.911 346.694 477.909 215.008 459.213C149.164 449.865 95.4189 435.842 58.1317 424.156C39.488 418.312 24.9584 413.053 15.088 409.253C10.1527 407.354 6.38223 405.819 3.8446 404.759C2.57578 404.228 1.61518 403.817 0.971296 403.538C0.649355 403.398 0.406596 403.292 0.244082 403.22C0.162825 403.184 0.101629 403.157 0.060628 403.139L0.0142882 403.118L0.00250882 403.113C-0.000209883 403.112 -0.00166033 403.111 0.203125 402.655C0.40791 402.199 0.409 402.199 0.411359 402.2L0.422416 402.205L0.467304 402.225C0.507335 402.243 0.567556 402.27 0.647832 402.305C0.808385 402.376 1.04916 402.482 1.3691 402.62C2.00897 402.898 2.96548 403.307 4.23011 403.836C6.75937 404.893 10.5211 406.424 15.4472 408.32C25.2994 412.112 39.8089 417.365 58.4308 423.201C95.6749 434.874 149.367 448.883 215.148 458.223C346.712 476.902 526.622 476.901 720.023 402.189C913.622 327.401 1093.71 327.402 1225.4 346.098C1291.24 355.446 1344.99 369.468 1382.27 381.155C1400.92 386.998 1415.45 392.258 1425.32 396.057C1430.25 397.957 1434.02 399.492 1436.56 400.552C1437.83 401.082 1438.79 401.493 1439.43 401.773C1439.76 401.912 1440 402.019 1440.16 402.09L1440.35 402.172L1440.39 402.192L1440.4 402.198C1440.41 402.199 1440.41 402.199 1440.2 402.656C1440 403.112 1440 403.111 1439.99 403.11L1439.98 403.105L1439.94 403.085L1439.76 403.005L1439.64 402.954L1439.49 402.886L1439.34 402.82L1439.04 402.69C1438.4 402.413 1437.44 402.003 1436.18 401.474C1433.65 400.418 1429.89 398.887 1424.96 396.99C1415.11 393.198 1400.6 387.946 1381.98 382.109C1344.73 370.436 1291.04 356.427 1225.26 347.088ZM1225.26 371.088C1093.69 352.409 913.784 352.41 720.383 427.122C526.784 501.911 346.694 501.909 215.008 483.213C149.164 473.865 95.4189 459.842 58.1317 448.156C39.488 442.312 24.9584 437.053 15.088 433.253C10.1527 431.354 6.38223 429.819 3.8446 428.759C2.57578 428.228 1.61518 427.817 0.971296 427.538C0.649355 427.398 0.406596 427.292 0.244082 427.22C0.162825 427.184 0.101629 427.157 0.060628 427.139L0.0142882 427.118L0.00250882 427.113C-0.000209883 427.112 -0.00166033 427.111 0.203125 426.655C0.40791 426.199 0.409 426.199 0.411359 426.2L0.422416 426.205L0.467304 426.225C0.507335 426.243 0.567556 426.27 0.647832 426.305C0.808385 426.376 1.04916 426.482 1.3691 426.62C2.00897 426.898 2.96548 427.307 4.23011 427.836C6.75937 428.893 10.5211 430.424 15.4472 432.32C25.2994 436.112 39.8089 441.365 58.4308 447.201C95.6749 458.874 149.367 472.883 215.148 482.223C346.712 500.902 526.622 500.901 720.023 426.189C913.622 351.401 1093.71 351.402 1225.4 370.098C1291.24 379.446 1344.99 393.468 1382.27 405.155C1400.92 410.998 1415.45 416.258 1425.32 420.057C1430.25 421.957 1434.02 423.492 1436.56 424.552C1437.83 425.082 1438.79 425.493 1439.43 425.773C1439.76 425.912 1440 426.019 1440.16 426.09L1440.35 426.172L1440.39 426.192L1440.4 426.198C1440.41 426.199 1440.41 426.199 1440.2 426.656C1440 427.112 1440 427.111 1439.99 427.11L1439.98 427.105L1439.94 427.085L1439.76 427.005C1439.69 426.975 1439.61 426.938 1439.51 426.895C1439.38 426.837 1439.22 426.769 1439.04 426.69C1438.4 426.413 1437.44 426.003 1436.18 425.474C1433.65 424.418 1429.89 422.887 1424.96 420.99C1415.11 417.198 1400.6 411.946 1381.98 406.109C1344.73 394.436 1291.04 380.427 1225.26 371.088Z" fill="white"/>
</g>
<g style="mix-blend-mode:overlay">
<path d="M0.203125 330.656C0.203125 330.656 154.69 400.013 375.502 397.007" stroke="url(#paint0_radial_50_401)"/>
</g>
<g style="mix-blend-mode:overlay">
<path d="M0.203125 330.656C0.203125 330.656 154.69 400.013 375.502 397.007" stroke="url(#paint1_radial_50_401)"/>
</g>
<g style="mix-blend-mode:overlay">
<path d="M720.203 378.656C807.261 345.025 891.586 326.525 970.002 318.05C1093.19 304.737 1201.79 316.164 1283.5 332.538" stroke="url(#paint2_radial_50_401)"/>
</g>
<g style="mix-blend-mode:overlay">
<path d="M651.5 306.34C674.168 299.449 697.088 291.586 720.201 282.658C809.484 248.167 895.892 229.591 976 221.422" stroke="url(#paint3_radial_50_401)"/>
</g>
<g style="mix-blend-mode:overlay">
<path d="M720.201 162.656C548.34 229.047 387.128 236.472 261 224.208C202.7 218.54 151.895 208.665 111 198.463" stroke="url(#paint4_radial_50_401)"/>
</g>
<g style="mix-blend-mode:overlay">
<path d="M378 108.972C480.778 107.322 597.788 89.9489 720.201 42.6599C775.861 21.1581 830.404 5.84121 883 -4.625" stroke="url(#paint5_radial_50_401)"/>
</g>
<g style="mix-blend-mode:overlay">
<path d="M875 -99C824.881 -88.5941 773.044 -73.7552 720.201 -53.3416C640.169 -22.4245 562.446 -4.29495 489.5 5.0139" stroke="url(#paint6_radial_50_401)"/>
</g>
</g>
<defs>
<filter id="filter0_f_50_401" x="-695" y="-561.5" width="2023" height="2023" filterUnits="userSpaceOnUse" color-interpolation-filters="sRGB">
<feFlood flood-opacity="0" result="BackgroundImageFix"/>
<feBlend mode="normal" in="SourceGraphic" in2="BackgroundImageFix" result="shape"/>
<feGaussianBlur stdDeviation="125" result="effect1_foregroundBlur_50_401"/>
</filter>
<filter id="filter1_f_50_401" x="-88.0547" y="-798.528" width="2497.05" height="2497.06" filterUnits="userSpaceOnUse" color-interpolation-filters="sRGB">
<feFlood flood-opacity="0" result="BackgroundImageFix"/>
<feBlend mode="normal" in="SourceGraphic" in2="BackgroundImageFix" result="shape"/>
<feGaussianBlur stdDeviation="200" result="effect1_foregroundBlur_50_401"/>
</filter>
<radialGradient id="paint0_radial_50_401" cx="0" cy="0" r="1" gradientUnits="userSpaceOnUse" gradientTransform="translate(187.853 363.879) rotate(89.8001) scale(42.8342 241.937)">
<stop stop-color="white"/>
<stop offset="1" stop-color="white" stop-opacity="0"/>
</radialGradient>
<radialGradient id="paint1_radial_50_401" cx="0" cy="0" r="1" gradientUnits="userSpaceOnUse" gradientTransform="translate(187.853 363.879) rotate(89.8001) scale(42.8342 241.937)">
<stop stop-color="white"/>
<stop offset="1" stop-color="white" stop-opacity="0"/>
</radialGradient>
<radialGradient id="paint2_radial_50_401" cx="0" cy="0" r="1" gradientUnits="userSpaceOnUse" gradientTransform="translate(1002 315.711) rotate(90.136) scale(62.9449 282.001)">
<stop stop-color="white"/>
<stop offset="1" stop-color="white" stop-opacity="0"/>
</radialGradient>
<radialGradient id="paint3_radial_50_401" cx="0" cy="0" r="1" gradientUnits="userSpaceOnUse" gradientTransform="translate(814 251.713) rotate(90.2622) scale(54.6274 208.75)">
<stop stop-color="white"/>
<stop offset="1" stop-color="white" stop-opacity="0"/>
</radialGradient>
<radialGradient id="paint4_radial_50_401" cx="0" cy="0" r="1" gradientUnits="userSpaceOnUse" gradientTransform="translate(416 217.212) rotate(89.9999) scale(68.5 322.851)">
<stop stop-color="white"/>
<stop offset="1" stop-color="white" stop-opacity="0"/>
</radialGradient>
<radialGradient id="paint5_radial_50_401" cx="0" cy="0" r="1" gradientUnits="userSpaceOnUse" gradientTransform="translate(630.5 52.1736) rotate(90) scale(56.7986 252.5)">
<stop stop-color="white"/>
<stop offset="1" stop-color="white" stop-opacity="0"/>
</radialGradient>
<radialGradient id="paint6_radial_50_401" cx="0" cy="0" r="1" gradientUnits="userSpaceOnUse" gradientTransform="translate(682.25 -46.993) rotate(90) scale(52.007 192.75)">
<stop stop-color="white"/>
<stop offset="1" stop-color="white" stop-opacity="0"/>
</radialGradient>
<clipPath id="clip0_50_401">
<rect width="1440" height="840" fill="white"/>
</clipPath>
</defs>
</svg>
