<svg width="138" height="28" viewBox="0 0 138 28" fill="none" xmlns="http://www.w3.org/2000/svg">
<path d="M48.6845 10.0415C48.5963 9.37445 48.3845 8.79514 48.0492 8.3036C47.3609 7.25031 46.2225 6.72367 44.6341 6.72367C43.3105 6.72367 42.3486 7.0221 41.7485 7.61896C41.2014 8.18072 40.9279 8.94436 40.9279 9.90987C40.9279 10.9807 41.2279 11.718 41.828 12.1218C42.428 12.5255 43.2663 12.7713 44.3429 12.8591C45.3666 12.9469 46.2314 13.0873 46.9373 13.2804C47.6433 13.456 48.2345 13.7017 48.711 14.0177C49.9641 14.7901 50.5906 16.0014 50.5906 17.6516C50.5906 18.3011 50.4583 18.9155 50.1935 19.4948C49.9464 20.0741 49.5846 20.592 49.1081 21.0484C48.0315 22.1017 46.5579 22.6284 44.6871 22.6284C42.7986 22.6284 41.3073 22.1105 40.2131 21.0748C39.2777 20.2146 38.7129 19.056 38.5188 17.5989H40.3455C40.5043 18.4766 40.8749 19.1964 41.4573 19.7582C42.2162 20.4603 43.3016 20.8114 44.7136 20.8114C45.9137 20.8114 46.8844 20.5218 47.6256 19.9425C48.3845 19.3456 48.764 18.582 48.764 17.6516C48.764 17.0547 48.6404 16.5632 48.3933 16.177C48.1639 15.7732 47.7139 15.4484 47.0432 15.2027C46.3725 14.9569 45.4195 14.7813 44.1841 14.676C40.7955 14.3776 39.1012 12.7889 39.1012 9.90987C39.1012 9.19012 39.2159 8.53182 39.4454 7.93495C39.6924 7.32053 40.0366 6.79389 40.4778 6.35501C41.4485 5.3895 42.8251 4.90674 44.6077 4.90674H44.6341C46.452 4.92429 47.8374 5.42461 48.7904 6.40768C49.7611 7.3732 50.3347 8.59326 50.5112 10.0679H48.6845V10.0415ZM54.101 16.8616C54.3128 17.9851 54.8687 18.9243 55.7688 19.6792C56.6689 20.4165 57.7014 20.7851 58.8662 20.7851C59.731 20.7851 60.5252 20.5832 61.2488 20.1795C61.9724 19.7757 62.5548 19.2227 62.996 18.5205L64.5579 19.4158C63.9579 20.3813 63.1549 21.1538 62.1489 21.7331C61.1429 22.3124 60.0487 22.602 58.8662 22.602C57.6661 22.602 56.5542 22.3036 55.5305 21.7067C54.5069 21.1099 53.6951 20.3024 53.095 19.2842C52.4949 18.266 52.1949 17.16 52.1949 15.9663C52.1949 14.755 52.4949 13.6491 53.095 12.6484C53.6951 11.6303 54.5069 10.8227 55.5305 10.2259C56.5542 9.629 57.6661 9.33056 58.8662 9.33056C60.0663 9.33056 61.1782 9.629 62.2018 10.2259C63.2255 10.8227 64.0373 11.6303 64.6374 12.6484C65.2374 13.6491 65.5375 14.755 65.5375 15.9663C65.5375 16.177 65.5198 16.4754 65.4845 16.8616H54.101ZM58.8662 11.1212C58.0896 11.1212 57.3307 11.3055 56.5895 11.6741C55.8482 12.0252 55.2482 12.5168 54.7893 13.1487C54.3304 13.7632 54.101 14.4303 54.101 15.15H63.6314C63.6314 14.4303 63.4019 13.7632 62.9431 13.1487C62.4842 12.5168 61.8841 12.0252 61.1429 11.6741C60.4193 11.3055 59.6604 11.1212 58.8662 11.1212ZM69.7198 4.9594V22.4704H67.9196V4.9594H69.7198ZM74.1664 4.9594V22.4704H72.3662V4.9594H74.1664ZM86.7139 10.0415C86.6256 9.37445 86.4139 8.79514 86.0785 8.3036C85.3902 7.25031 84.2519 6.72367 82.6635 6.72367C81.3398 6.72367 80.3779 7.0221 79.7779 7.61896C79.2308 8.18072 78.9572 8.94436 78.9572 9.90987C78.9572 10.9807 79.2572 11.718 79.8573 12.1218C80.4574 12.5255 81.2957 12.7713 82.3723 12.8591C83.3959 12.9469 84.2607 13.0873 84.9666 13.2804C85.6726 13.456 86.2638 13.7017 86.7404 14.0177C87.9934 14.7901 88.62 16.0014 88.62 17.6516C88.62 18.3011 88.4876 18.9155 88.2229 19.4948C87.9758 20.0741 87.614 20.592 87.1375 21.0484C86.0609 22.1017 84.5872 22.6284 82.7164 22.6284C80.828 22.6284 79.3367 22.1105 78.2424 21.0748C77.307 20.2146 76.7423 19.056 76.5481 17.5989H78.3748C78.5336 18.4766 78.9043 19.1964 79.4867 19.7582C80.2456 20.4603 81.331 20.8114 82.7429 20.8114C83.943 20.8114 84.9137 20.5218 85.655 19.9425C86.4139 19.3456 86.7933 18.582 86.7933 17.6516C86.7933 17.0547 86.6698 16.5632 86.4227 16.177C86.1932 15.7732 85.7432 15.4484 85.0725 15.2027C84.4019 14.9569 83.4488 14.7813 82.2134 14.676C78.8248 14.3776 77.1306 12.7889 77.1306 9.90987C77.1306 9.19012 77.2453 8.53182 77.4747 7.93495C77.7218 7.32053 78.0659 6.79389 78.5072 6.35501C79.4779 5.3895 80.8545 4.90674 82.637 4.90674H82.6635C84.4813 4.92429 85.8667 5.42461 86.8198 6.40768C87.7905 7.3732 88.3641 8.59326 88.5405 10.0679H86.7139V10.0415ZM101.979 20.2585C101.343 20.9958 100.585 21.5751 99.7021 21.9964C98.8373 22.4002 97.902 22.602 96.896 22.602C95.6958 22.602 94.584 22.3036 93.5603 21.7067C92.5367 21.1099 91.7248 20.3024 91.1248 19.2842C90.5247 18.266 90.2247 17.16 90.2247 15.9663C90.2247 14.7726 90.5247 13.6666 91.1248 12.6484C91.7248 11.6303 92.5367 10.8227 93.5603 10.2259C94.584 9.629 95.6958 9.33056 96.896 9.33056C97.902 9.33056 98.8373 9.54122 99.7021 9.96254C100.585 10.3663 101.343 10.9368 101.979 11.6741L100.364 12.5958C99.9227 12.1393 99.4021 11.7882 98.802 11.5425C98.202 11.2792 97.5666 11.1475 96.896 11.1475C96.0135 11.1475 95.2017 11.3669 94.4604 11.8058C93.7192 12.2271 93.1279 12.8064 92.6867 13.5437C92.2455 14.281 92.0249 15.0886 92.0249 15.9663C92.0249 16.844 92.2455 17.6516 92.6867 18.3889C93.1279 19.1262 93.7192 19.7143 94.4604 20.1531C95.2017 20.5745 96.0135 20.7851 96.896 20.7851C97.5666 20.7851 98.202 20.6622 98.802 20.4165C99.4021 20.1531 99.9227 19.7933 100.364 19.3368L101.979 20.2585ZM116.675 9.64655V22.4704H114.848V20.0478C113.631 21.7506 112.007 22.602 109.977 22.602C108.76 22.602 107.639 22.3124 106.615 21.7331C105.592 21.1362 104.78 20.3287 104.18 19.3105C103.597 18.2923 103.306 17.1864 103.306 15.9926C103.306 14.7813 103.597 13.6666 104.18 12.6484C104.78 11.6303 105.592 10.8315 106.615 10.2522C107.639 9.65533 108.76 9.3569 109.977 9.3569C111.23 9.3569 112.254 9.62022 113.048 10.1469C113.86 10.656 114.46 11.2089 114.848 11.8058V9.64655H116.675ZM109.977 20.8114C110.86 20.8114 111.672 20.6008 112.413 20.1795C113.154 19.7406 113.737 19.1525 114.16 18.4152C114.601 17.6779 114.822 16.8704 114.822 15.9926C114.822 15.1149 114.601 14.3074 114.16 13.5701C113.737 12.8152 113.154 12.2271 112.413 11.8058C111.672 11.3669 110.86 11.1475 109.977 11.1475C109.095 11.1475 108.274 11.3669 107.515 11.8058C106.774 12.2271 106.183 12.8152 105.742 13.5701C105.318 14.3074 105.106 15.1149 105.106 15.9926C105.106 16.8704 105.318 17.6779 105.742 18.4152C106.183 19.1525 106.774 19.7406 107.515 20.1795C108.274 20.6008 109.095 20.8114 109.977 20.8114ZM121.116 4.9594V22.4704H119.315V4.9594H121.116ZM125.403 16.8616C125.615 17.9851 126.171 18.9243 127.071 19.6792C127.971 20.4165 129.004 20.7851 130.168 20.7851C131.033 20.7851 131.827 20.5832 132.551 20.1795C133.275 19.7757 133.857 19.2227 134.298 18.5205L135.86 19.4158C135.26 20.3813 134.457 21.1538 133.451 21.7331C132.445 22.3124 131.351 22.602 130.168 22.602C128.968 22.602 127.856 22.3036 126.833 21.7067C125.809 21.1099 124.997 20.3024 124.397 19.2842C123.797 18.266 123.497 17.16 123.497 15.9663C123.497 14.755 123.797 13.6491 124.397 12.6484C124.997 11.6303 125.809 10.8227 126.833 10.2259C127.856 9.629 128.968 9.33056 130.168 9.33056C131.369 9.33056 132.48 9.629 133.504 10.2259C134.528 10.8227 135.34 11.6303 135.94 12.6484C136.54 13.6491 136.84 14.755 136.84 15.9663C136.84 16.177 136.822 16.4754 136.787 16.8616H125.403ZM130.168 11.1212C129.392 11.1212 128.633 11.3055 127.892 11.6741C127.151 12.0252 126.55 12.5168 126.092 13.1487C125.633 13.7632 125.403 14.4303 125.403 15.15H134.934C134.934 14.4303 134.704 13.7632 134.245 13.1487C133.787 12.5168 133.186 12.0252 132.445 11.6741C131.722 11.3055 130.963 11.1212 130.168 11.1212Z" fill="white"/>
<mask id="mask0_123_3209" style="mask-type:luminance" maskUnits="userSpaceOnUse" x="0" y="0" width="30" height="28">
<path d="M29.959 0H0V28H29.959V0Z" fill="white"/>
</mask>
<g mask="url(#mask0_123_3209)">
<path d="M28.4498 9.38171C28.3028 9.53812 28.1403 9.69182 27.9682 9.83779L24.4699 12.7856L24.0526 13.1368L23.8509 10.979L23.8332 10.8162L23.7896 10.5275C23.7627 10.3792 23.729 10.2279 23.6751 10.0251C23.5863 9.69989 23.463 9.37473 23.3087 9.0548C23.3038 9.04321 23.297 9.03162 23.2909 9.02004V9.01947L23.6402 8.72555L25.4651 7.18792C25.527 7.13579 25.59 7.07553 25.6439 7.01992C26.0361 6.60322 26.2323 6.06876 26.1984 5.51416C26.1641 4.95885 25.9036 4.44941 25.4649 4.08023C25.0586 3.73767 24.5446 3.55228 24.0053 3.55228C23.9612 3.55228 23.9183 3.55402 23.8748 3.55692C23.2883 3.5882 22.7497 3.83515 22.3581 4.24954L20.7686 5.93736L20.461 6.26427H20.4604L17.7127 9.18356H17.7121L17.3438 9.57477L16.0142 10.9861L15.6416 11.3814L10.976 10.9936L11.3479 10.5989L12.7378 9.1233L13.106 8.73266L16.1852 5.46373L16.5529 5.0737L19.5543 1.88646C20.6126 0.76264 22.0697 0.0960835 23.6587 0.00975816C25.2464 -0.0777259 26.7765 0.425307 27.9647 1.42688C29.1528 2.42788 29.8569 3.8072 29.9488 5.30964C30.0399 6.81177 29.5081 8.25789 28.4498 9.38171Z" fill="#72E212"/>
<path d="M20.5549 16.0841V16.0846L20.1376 16.4359L18.7661 17.5904L18.3538 17.9382L14.8952 20.853L14.4823 21.2007L9.21355 25.6398C8.35568 26.3626 7.28514 26.7179 6.21765 26.7179C4.97619 26.7179 3.73904 26.2368 2.8498 25.2932C1.32582 23.6745 1.32643 21.2355 2.85164 19.6196L7.48727 14.6978L7.85926 14.3031H7.85983L12.5243 14.6908L12.1517 15.0867L5.65381 21.9862C5.40068 22.2546 5.40069 22.6603 5.65443 22.9292C5.93024 23.222 6.4057 23.2475 6.71455 22.9872L14.0048 16.8446L14.4184 16.4963L17.8769 13.5815L18.2905 13.2326L19.7257 12.0242L20.143 11.6724L20.5549 16.0841Z" fill="#72E212"/>
<path d="M20.5224 27.9819C20.3779 27.9935 20.2344 27.9999 20.0916 27.9999C17.6204 27.9999 15.4811 26.2113 15.2225 23.8443L14.8952 20.853L18.3538 17.9382L18.9592 23.4785C19.0229 24.0622 19.5776 24.4934 20.1902 24.4424C20.8172 24.3897 21.2817 23.8663 21.2259 23.2764L20.5549 16.0847V16.0841L20.1431 11.6722V11.6717L20.1008 11.2167L20.0831 11.1043C20.0702 11.0377 20.0494 10.9589 20.0353 10.9037C20.0041 10.7908 19.9544 10.6608 19.8926 10.5305C19.7768 10.2916 19.6143 10.0709 19.4116 9.88011C19.205 9.68244 18.9649 9.52195 18.7099 9.41012C18.5856 9.35452 18.4507 9.30874 18.3171 9.27399C18.2418 9.25599 18.1652 9.23861 18.113 9.22935L17.8691 9.19867L17.7129 9.18358L20.4605 6.26416H20.4612C21.0617 6.55052 21.6028 6.92203 22.0752 7.37468C22.5776 7.84875 22.9887 8.4052 23.2909 9.01948V9.02005C23.297 9.03164 23.3038 9.04323 23.3087 9.05481C23.463 9.37479 23.5863 9.69995 23.6751 10.0251C23.729 10.228 23.7627 10.3792 23.7896 10.5276L23.8331 10.8162L23.8509 10.979L24.0526 13.1369V13.1375L24.0752 13.3798L24.968 22.9634C25.207 25.5024 23.2131 27.7553 20.5224 27.9819Z" fill="#D63DE3"/>
<path d="M17.8771 13.5814L14.4186 16.4962L14.2992 15.4089C14.2624 15.0756 13.9811 14.8124 13.6263 14.7823L12.5245 14.6907L7.8601 14.303H7.85948L4.65167 14.0358C3.29504 13.9228 2.06569 13.3159 1.19069 12.3277C0.315688 11.34 -0.0997612 10.0887 0.020295 8.80442C0.137289 7.52414 0.77708 6.36021 1.82129 5.53202C2.85632 4.71076 4.16453 4.31723 5.50707 4.41979H5.52908L16.1845 5.46364H16.1852L13.1061 8.7324L11.9835 8.62233L5.21608 7.96157C5.17566 7.9581 5.13587 7.95753 5.09545 7.95753C4.78103 7.95753 4.47955 8.06005 4.23574 8.25372C3.96179 8.47114 3.79334 8.77761 3.76271 9.11435C3.73025 9.45632 3.83989 9.7867 4.07035 10.0464C4.30144 10.3067 4.62422 10.4666 4.98148 10.4961L10.9756 10.9934H10.9762L15.6418 11.3811L16.6683 11.4663C17.2413 11.5138 17.6978 11.9398 17.7572 12.4806L17.8771 13.5814Z" fill="#D63DE3"/>
<path d="M14.4187 16.496L17.8221 13.0762L17.8772 13.5814L14.4187 16.496Z" fill="#D63DE3"/>
<path d="M13.1062 8.73246L16.1854 5.46353L15.4053 5.38721L13.1062 8.73246Z" fill="#D63DE3"/>
</g>
</svg>
